<!--
This file is part of Noppi.

Noppi is free software: you can redistribute it and/or modify
it under the terms of the GNU General Public License as published by
the Free Software Foundation, either version 3 of the License, or
(at your option) any later version.

Noppi is distributed in the hope that it will be useful,
but WITHOUT ANY WARRANTY; without even the implied warranty of
MERCHANTABILITY or FITNESS FOR A PARTICULAR PURPOSE.  See the
GNU General Public License for more details.

You should have received a copy of the GNU General Public License
along with Noppi.  If not, see <http://www.gnu.org/licenses/>.
-->
<svg version="1.1"
    xmlns="http://www.w3.org/2000/svg"
    >
  <style>
    ellipse {
      fill-opacity: 1;
      stroke-width: 0;
      fill: black;
    }
    path{
      stroke: black;
    }
    line{
      stroke: black;
    }
  </style>
      
  <svg x="60">
    <svg id="note">
      <svg y="120" x="50">
        <ellipse cx="12" cy="76" rx="12" ry="10" transform="rotate(-15)"/>
        <line id="noteLineDown" x1="20" y1="70" x2="20" y2="140" dx="0" />
        <line id="noteLineUp"   x1="42" y1="0"  x2="42" y2="70"  dx="0" />
      </svg>
    </svg>

    <!-- extra lines over and under the 5 standard lines -->
    <svg y="50"  id="threeOver"><line x1="65" y1="10" x2="97" y2="10" /></svg>
    <svg y="70"  id="twoOver"  ><line x1="65" y1="10" x2="97" y2="10" /></svg>
    <svg y="90"  id="oneOver"  ><line x1="65" y1="10" x2="97" y2="10" /></svg>
    <svg y="210" id="oneUnder" ><line x1="65" y1="10" x2="97" y2="10" /></svg>
    <svg y="230" id="twoUnder" ><line x1="65" y1="10" x2="97" y2="10" /></svg>
  </svg>
    
  <svg y="100">
    <path d="M5 20  l215 0" />
    <path d="M5 40  l215 0" />
    <path d="M5 60  l215 0" />
    <path d="M5 80  l215 0" />
    <path d="M5 100 l215 0" />
  </svg>

  <!-- vanlig klav -->
  <svg id="gClef"> 
    <g transform="matrix(3.63,0,0,3.63,0,0)" xmlns="http://www.w3.org/2000/svg" clip-path="url(#SVGID_2_)">
      <svg y="-6" x="-33">
  	  	<path d="m46.153 60.711c-0.626 0.202-1.249 0.302-1.867 0.302-0.633 0-1.243-0.101-1.83-0.302-0.588-0.202-1.137-0.485-1.648-0.85s-0.977-0.805-1.398-1.319c-0.42-0.515-0.78-1.084-1.079-1.71s-0.53-1.298-0.694-2.018-0.245-1.469-0.245-2.248c0-0.995 0.149-1.891 0.449-2.691 0.299-0.8 0.708-1.552 1.226-2.258s1.125-1.389 1.82-2.049 1.439-1.345 2.232-2.055c-0.216-1.099-0.356-2.037-0.422-2.816s-0.099-1.436-0.099-1.971c0-1.133 0.094-2.117 0.282-2.952 0.188-0.834 0.416-1.522 0.685-2.065 0.268-0.542 0.55-0.946 0.846-1.21s0.552-0.396 0.769-0.396c0.223 0 0.44 0.077 0.653 0.229 0.212 0.153 0.413 0.358 0.601 0.616s0.36 0.553 0.517 0.886c0.157 0.334 0.292 0.68 0.408 1.038 0.115 0.358 0.206 0.715 0.272 1.069s0.099 0.685 0.099 0.991c0 1.196-0.09 2.265-0.271 3.207s-0.426 1.789-0.735 2.54c-0.31 0.751-0.669 1.424-1.08 2.019-0.41 0.594-0.841 1.138-1.293 1.632l0.678 3.828c0.097-0.014 0.196-0.024 0.297-0.032 0.101-0.007 0.203-0.01 0.308-0.01 0.646 0 1.253 0.124 1.819 0.37 0.565 0.247 1.06 0.581 1.482 1.001 0.422 0.421 0.754 0.915 0.997 1.481 0.242 0.567 0.364 1.173 0.364 1.82 0 0.626-0.085 1.226-0.256 1.799s-0.408 1.104-0.714 1.59-0.673 0.923-1.1 1.309c-0.428 0.386-0.896 0.704-1.403 0.954l0.739 4.12c0.014 0.083 0.026 0.181 0.037 0.292 0.01 0.111 0.019 0.222 0.026 0.333s0.012 0.215 0.016 0.313c0.003 0.097 0.005 0.177 0.005 0.24 0 0.501-0.096 0.972-0.288 1.414-0.192 0.441-0.452 0.827-0.779 1.158-0.328 0.33-0.715 0.591-1.161 0.782s-0.92 0.287-1.422 0.287c-0.528 0-1.029-0.064-1.502-0.193s-0.888-0.318-1.246-0.568-0.644-0.558-0.855-0.923c-0.212-0.365-0.318-0.787-0.318-1.267 0-0.271 0.052-0.528 0.156-0.772 0.104-0.243 0.247-0.457 0.428-0.641 0.181-0.185 0.391-0.329 0.631-0.433s0.499-0.156 0.777-0.156 0.539 0.052 0.782 0.156 0.457 0.249 0.641 0.433 0.329 0.398 0.433 0.641c0.104 0.244 0.156 0.501 0.156 0.772 0 0.229-0.014 0.421-0.042 0.574s-0.066 0.282-0.115 0.386-0.106 0.191-0.172 0.261-0.134 0.136-0.203 0.198c-0.104 0.09-0.179 0.156-0.225 0.198-0.045 0.042-0.067 0.111-0.067 0.208 0 0.118 0.045 0.217 0.135 0.297s0.292 0.12 0.605 0.12c0.403 0 0.784-0.077 1.142-0.229 0.358-0.153 0.669-0.364 0.934-0.631 0.264-0.268 0.473-0.579 0.625-0.933 0.153-0.355 0.229-0.734 0.229-1.137 0-0.048-0.001-0.122-0.005-0.219-0.004-0.098-0.009-0.2-0.016-0.308s-0.016-0.209-0.026-0.303-0.019-0.168-0.026-0.224l-0.699-3.975zm-1.46-8.25c-0.348 0.098-0.669 0.247-0.965 0.449-0.295 0.202-0.549 0.443-0.761 0.725s-0.379 0.596-0.5 0.944-0.183 0.713-0.183 1.095c0 0.34 0.064 0.659 0.193 0.954s0.304 0.555 0.527 0.777 0.481 0.398 0.777 0.526c0.295 0.129 0.614 0.193 0.955 0.193v0.448c-0.521 0-1.012-0.099-1.471-0.297s-0.86-0.469-1.205-0.813-0.615-0.746-0.813-1.205-0.297-0.949-0.297-1.471c0-0.528 0.085-1.034 0.255-1.518 0.17-0.483 0.405-0.921 0.704-1.314s0.653-0.731 1.064-1.017c0.41-0.285 0.858-0.497 1.345-0.636l-0.594-3.338c-0.39 0.396-0.781 0.775-1.173 1.137-0.393 0.361-0.772 0.727-1.137 1.095-0.365 0.369-0.704 0.748-1.017 1.137s-0.586 0.812-0.819 1.267-0.416 0.953-0.547 1.491c-0.132 0.539-0.198 1.142-0.198 1.81 0 0.751 0.143 1.457 0.428 2.117 0.285 0.661 0.676 1.238 1.173 1.731 0.497 0.494 1.076 0.883 1.736 1.168s1.366 0.428 2.117 0.428c0.577 0 1.158-0.111 1.742-0.333l-1.336-7.55zm-0.949-9.523c0.445-0.417 0.862-0.839 1.251-1.267s0.73-0.874 1.022-1.34c0.292-0.465 0.521-0.956 0.688-1.47s0.25-1.064 0.25-1.648c0-0.264-0.035-0.506-0.104-0.725-0.07-0.219-0.166-0.407-0.287-0.563-0.122-0.157-0.262-0.276-0.422-0.36-0.16-0.083-0.333-0.125-0.521-0.125-0.111 0-0.243 0.021-0.396 0.062-0.153 0.042-0.308 0.118-0.464 0.229s-0.311 0.268-0.464 0.469c-0.153 0.202-0.291 0.462-0.412 0.782s-0.219 0.708-0.292 1.163c-0.073 0.456-0.109 0.996-0.109 1.622 0 0.438 0.019 0.918 0.057 1.439s0.105 1.1 0.203 1.732zm1.648 9.398l1.293 7.342c0.341-0.202 0.652-0.445 0.934-0.73 0.281-0.285 0.521-0.6 0.72-0.944 0.198-0.344 0.351-0.714 0.458-1.111s0.162-0.803 0.162-1.22c0-0.459-0.087-0.892-0.261-1.298-0.174-0.407-0.412-0.762-0.715-1.064-0.302-0.303-0.657-0.541-1.063-0.714s-0.84-0.261-1.299-0.261h-0.229z"/>
  	  </svg>
  	</g>
  </svg>

  <!-- Basklav -->
  <svg id="fClef" display="none">
    <g transform="matrix(3.63,0,0,3.63,0,0)" xmlns="http://www.w3.org/2000/svg" clip-path="url(#SVGID_4_)">
      <svg y="-61" x="-33">
  		  <path d="m37.319 111.45c1.272-0.667 2.428-1.443 3.468-2.326s1.926-1.841 2.66-2.874c0.733-1.033 1.302-2.123 1.705-3.27s0.605-2.319 0.605-3.515c0-0.619-0.096-1.166-0.287-1.643-0.191-0.476-0.452-0.874-0.782-1.194-0.331-0.319-0.718-0.561-1.163-0.725s-0.918-0.245-1.418-0.245c-0.542 0-1.003 0.075-1.382 0.224-0.379 0.15-0.687 0.325-0.923 0.527s-0.407 0.407-0.511 0.615c-0.104 0.208-0.157 0.372-0.157 0.49 0 0.139 0.038 0.259 0.115 0.36s0.195 0.151 0.355 0.151c0.111 0 0.253-0.035 0.427-0.104s0.348-0.104 0.521-0.104c0.244 0 0.47 0.047 0.678 0.141s0.387 0.221 0.537 0.38c0.149 0.16 0.266 0.348 0.349 0.563s0.125 0.445 0.125 0.688c0 0.243-0.047 0.475-0.141 0.693-0.094 0.219-0.221 0.408-0.38 0.568-0.16 0.16-0.348 0.287-0.563 0.381s-0.448 0.141-0.699 0.141c-0.369 0-0.695-0.062-0.98-0.188-0.285-0.125-0.526-0.296-0.725-0.511s-0.35-0.469-0.454-0.761c-0.104-0.292-0.157-0.602-0.157-0.928 0-0.584 0.115-1.132 0.344-1.643s0.553-0.956 0.97-1.335c0.417-0.378 0.914-0.679 1.491-0.902s1.217-0.334 1.919-0.334c0.758 0 1.472 0.141 2.144 0.422 0.671 0.282 1.257 0.667 1.757 1.158s0.895 1.064 1.184 1.721c0.289 0.657 0.433 1.357 0.433 2.102 0 0.834-0.12 1.649-0.36 2.446-0.24 0.796-0.586 1.562-1.038 2.3-0.452 0.737-1.003 1.438-1.653 2.102s-1.382 1.283-2.195 1.856-1.706 1.099-2.675 1.575c-0.97 0.476-1.998 0.888-3.082 1.236l-0.062-0.25zm14.393-14.459c0 0.153-0.03 0.297-0.089 0.433s-0.139 0.252-0.24 0.35-0.219 0.176-0.355 0.235c-0.135 0.059-0.28 0.088-0.433 0.088-0.313 0-0.575-0.106-0.788-0.318-0.212-0.212-0.318-0.475-0.318-0.788 0-0.153 0.029-0.297 0.088-0.433s0.137-0.254 0.235-0.355c0.097-0.101 0.214-0.181 0.35-0.24 0.135-0.059 0.28-0.089 0.433-0.089s0.297 0.03 0.433 0.089c0.136 0.059 0.254 0.139 0.355 0.24s0.181 0.219 0.24 0.355c0.06 0.136 0.089 0.28 0.089 0.433zm0 5.349c0 0.153-0.03 0.297-0.089 0.433s-0.139 0.252-0.24 0.35c-0.101 0.097-0.219 0.175-0.355 0.234-0.135 0.059-0.28 0.089-0.433 0.089-0.313 0-0.575-0.106-0.788-0.318-0.212-0.212-0.318-0.475-0.318-0.787 0-0.153 0.029-0.297 0.088-0.433 0.059-0.135 0.137-0.254 0.235-0.354 0.097-0.101 0.214-0.181 0.35-0.24 0.135-0.059 0.28-0.089 0.433-0.089s0.297 0.03 0.433 0.089c0.136 0.059 0.254 0.139 0.355 0.24s0.181 0.219 0.24 0.354c0.06 0.14 0.089 0.29 0.089 0.44z"/>
  		</svg>
  	</g>
  </svg>

</svg>